PathFileType	4	(X/Y/Z)	Patient4_TMGait_0pt7_02_right_49.trc.trc
DataRate	CameraRate	NumFrames	NumMarkers	Units	OrigDataRate	OrigDataStartFrame	OrigNumFrames
86.956521739130	86.956521739130	5	33	mm	86.956521739130	1	       141
Frame#	Time	Sacral			L.Shoulder			Chest			R.Shoulder			Neck			R.ASIS			L.ASIS			R.Thigh.Superior			R.Thigh.Lateral			R.Thigh.Inferior			R.Patella			L.Thigh.Superior			L.Thigh.Lateral			L.Thigh.Inferior			L.Patella			L.Shank.Superior			L.Shank.Lateral			L.Shank.Inferior			R.Shank.Superior			R.Shank.Lateral			R.Shank.Inferior			R.Heel			R.Midfoot.Superior			R.Midfoot.Lateral			R.Toe			L.Heel			L.Midfoot.Lateral			L.Midfoot.Superior			L.Toe			L.Elbow			L.Wrist			R.Elbow			R.Wrist			
		X1	Y1	Z1	X2	Y2	Z2	X3	Y3	Z3	X4	Y4	Z4	X5	Y5	Z5	X6	Y6	Z6	X7	Y7	Z7	X8	Y8	Z8	X9	Y9	Z9	X10	Y10	Z10	X11	Y11	Z11	X12	Y12	Z12	X13	Y13	Z13	X14	Y14	Z14	X15	Y15	Z15	X16	Y16	Z16	X17	Y17	Z17	X18	Y18	Z18	X19	Y19	Z19	X20	Y20	Z20	X21	Y21	Z21	X22	Y22	Z22	X23	Y23	Z23	X24	Y24	Z24	X25	Y25	Z25	X26	Y26	Z26	X27	Y27	Z27	X28	Y28	Z28	X29	Y29	Z29	X30	Y30	Z30	X31	Y31	Z31	X32	Y32	Z32	X33	Y33	Z33	

1	55.520000000000	751.539723727325	1013.956974689862	443.140824489465	938.538614157416	1430.539980327936	243.384043315242	1046.563610771992	1357.397605108013	400.559577406274	978.719360024275	1443.161869943752	575.925946466113	953.685505049713	1495.367010575147	395.392330112843	982.913609783355	946.894651306366	550.136740902029	956.411911451137	962.904520948198	275.995076202422	1067.767904601621	786.399056213713	522.802118494788	1036.872561558681	666.047042763916	603.162675033128	1127.698545382830	628.473491855588	523.293729922549	1150.822329048707	512.693680519665	548.369635141027	1002.968256288689	753.363154048001	297.474536525017	906.434770994632	638.233228996572	253.415583534577	997.471616593147	560.348649238767	306.942903850923	998.773570816834	491.110517654948	318.180261309835	970.557645803541	419.226643662935	316.982793025875	875.470136165513	303.929394416596	280.061829810639	933.722539438793	195.548803608171	350.727801657462	1068.794647141284	440.594365748498	559.421471640684	945.058675210968	413.206042931460	622.505562455446	921.456217165696	304.135424169510	577.559699812277	717.738268245841	266.718718726358	556.842236225741	876.305647756285	180.507224063015	590.316947971922	767.262336032408	192.435579191599	624.036533495055	922.824391841001	57.285886648312	604.014175678217	807.395097352068	39.621784294399	406.459090324027	879.270474861071	35.932495254746	323.691905417971	963.589616766575	97.016425577651	345.980556711348	1091.022980256343	42.707013163142	316.083102639931	941.996977192017	1082.021519005584	119.224634959351	1116.691360475064	887.115925162430	129.175727302899	941.262162728014	1099.093002961604	703.634287404034	1060.035616408293	865.094727130604	711.446814199510	
2	55.531500000000	750.722408950864	1014.169108281638	442.910655785212	938.950453970248	1430.323627974409	242.109022254556	1046.260913317042	1357.319822046494	399.760946143634	978.077052842195	1443.466634642637	574.732248875054	953.436778126461	1495.470244586637	393.969517916466	982.143164913240	947.207061762128	549.816634685337	955.116862575376	963.130721287555	275.717515346964	1068.714191330674	789.684472812859	521.917745971824	1040.611364738911	668.796220867588	602.416648378369	1131.488077461986	632.824780176557	522.021760737498	1156.939196669303	518.169026575245	546.737058352970	999.355223904864	752.675816969921	297.822170208476	901.559458289138	638.560780276148	253.198154863283	991.338532215707	559.630003679043	306.830074457923	991.603728405616	490.501703748369	318.170946300964	963.373250058790	419.044693218006	316.774632919265	867.665754544214	304.184111614641	279.944362588963	925.572170870989	195.537838791999	350.572654152318	1078.122730665664	443.632903383743	557.880929886369	956.757168984591	410.765099144672	622.024032304216	937.300323931854	301.149509259217	576.707200262397	735.511855436810	254.757954822690	558.083077727091	898.083084886519	176.292323449310	589.458209406533	789.148042860519	182.752399241152	624.195409894782	950.129333122177	55.364068816541	601.690326067800	798.860486566343	39.694736103076	406.438141137880	870.774266990619	35.961105410357	323.673380826492	955.108958559339	97.024583917618	345.904717918770	1082.507429230377	42.708140829778	316.052649631982	950.300824590479	1083.532662203184	116.442709045437	1133.371331444804	897.882636937209	128.791532033548	932.149993104713	1100.972703016897	702.815384599500	1032.583042721024	861.128955130866	715.330475291946	
3	55.543000000000	749.917103405598	1014.375061566968	442.708502398765	939.349525128147	1430.100640108842	240.880274823294	1045.967783476963	1357.227278337287	398.990620739455	977.449429209415	1443.730509216033	573.584446596044	953.200342951085	1495.552823244851	392.598722309546	981.401100188783	947.497835911764	549.504816744569	953.881301850194	963.353765922333	275.441853295480	1069.606527780925	792.845964533725	521.032477074243	1044.209850898910	671.426715507335	601.640368184044	1135.096789042555	637.000679257263	520.707768034491	1162.816814388944	523.488577666863	545.064279798995	995.828337650195	751.983023438460	298.179562562529	896.775286140897	638.866659289219	253.008919949384	985.301226505003	558.908250038230	306.752345247591	984.550810845409	489.905495231652	318.197458157828	956.301884979542	418.851750653118	316.602647276752	859.989722840950	304.425499300753	279.838268658287	917.534889582239	195.514746916217	350.440783874396	1087.221781888609	446.557288511884	556.355514375143	968.274468414559	408.232521290807	621.573661966734	953.006724633817	298.074661604439	575.940452897068	753.230565606116	242.688749601335	559.422856004734	919.741532839700	172.010693277454	588.737403489606	810.958653857512	173.050529902169	624.496371453960	977.312020750722	53.435375210501	599.596290661771	790.435737745350	39.763297097423	406.415245241394	862.382052077442	35.984265172303	323.657683929980	946.732342503746	97.030734826608	345.836846042401	1074.096552665173	42.711873245178	316.022508444813	958.415097631325	1085.050363290451	113.731783865985	1149.689123288509	908.629346913887	128.474597772090	923.042919463447	1102.861974244207	702.040658699973	1005.505131709627	857.535721484934	719.138672251526	
4	55.554500000000	749.149096912423	1014.558091723670	442.557149520555	939.733353588915	1429.853725413869	239.746118513661	1045.699021997686	1357.096425894778	398.282185043318	976.857105024603	1443.913325602648	572.529345205002	952.993843846538	1495.585004109395	391.332641185357	980.715015789460	947.727647410195	549.211195555803	952.763074451630	963.560831328377	275.173540157780	1070.365609516139	795.713573341841	520.149614226502	1047.493365370582	673.790951181707	600.832840980669	1138.299273332441	640.778414784372	519.332243295105	1168.186146874662	528.479801228848	543.337900731767	992.436977424579	751.263418094621	298.554519038741	892.113101690012	639.135112629480	252.871551406570	979.376687090486	558.173061898875	306.740051362132	977.640763080491	489.327087548617	318.290280649772	949.363783646707	418.639198866126	316.497814813620	852.473558638524	304.644126883813	279.753279044571	909.629354198185	195.469936216018	350.351973239369	1095.876620244425	449.246381332549	554.877074944306	979.521045603943	405.465171248383	621.198240265419	968.584249824490	294.818240133971	575.324666532176	771.125946222094	230.305431433028	560.900694175832	941.388936405178	167.637296253969	588.257395207879	832.894412831118	163.285223347469	625.033830914494	1004.510264892752	51.641349153443	597.943184786254	782.138434375864	39.822818658794	406.388953912683	854.105981117015	35.997502562964	323.647566976373	938.471699015798	97.032165098112	345.784584224983	1065.802725518321	42.720063776342	315.994378716257	966.184322273852	1086.577712773209	111.156269559220	1165.336285434421	919.426008437700	128.300923295030	913.890408535217	1104.828872618228	701.365146846528	979.025643916275	854.714572143329	722.802302218112	
5	55.566000000000	748.445255778977	1014.702426864978	442.471876236907	940.103087576014	1429.566163832955	238.746066419173	1045.469027552585	1356.906453447953	397.664396029360	976.319541037128	1443.985428368569	571.605038745041	952.834475225882	1495.540965463428	390.214060475794	980.105663113933	947.858474414930	548.944446847944	951.800554692889	963.734205315103	274.920770539744	1070.919728566342	798.134700050990	519.274649569745	1050.310069847816	675.759920469172	600.005931154239	1140.897329893678	643.959614178005	517.888320773620	1172.820289166211	532.993742855932	541.557062311783	989.211759065279	750.496424072951	298.950520773839	887.580622003381	639.355996625205	252.803694079739	973.556834372138	557.414948849642	306.814328056710	970.868595249285	488.768046038214	318.471945025258	942.548961107411	418.401737539021	316.482768851904	845.115609337835	304.833652021665	279.696878862228	901.845859347355	195.396849285312	350.320395396178	1103.913217683501	451.599091378889	553.478530434831	990.446397355414	402.340732546392	620.940054090082	984.073998992213	291.314372252025	574.905120018085	789.465445516091	217.430447174963	562.523416719850	963.164999524754	163.178663777437	588.083320067446	855.185745964153	153.434470016177	625.866534915139	1031.895384785255	50.161471356846	596.897077810332	773.958901712687	39.869486571704	406.358612110303	845.933152915654	35.998354940052	323.644731682076	930.313943161818	97.026373326289	345.753681049013	1057.612936356977	42.733282297959	315.970314919895	973.490645829054	1088.112569749542	108.766571937500	1180.070359372272	930.342562357668	128.331552840387	904.647502811967	1106.949917850504	700.840082578257	953.308183696682	852.981945490029	726.261846416819	
